<svg xmlns="http://www.w3.org/2000/svg" viewBox="0 0 2500 2500" width="2500" height="2500"><g transform="translate(429.0 434.0) rotate(-29.47878627454141 820.5 669.0) scale(1.0002419841972738 1.0000545620202)"><svg width="1640.603" height="1337.927" viewBox="0 0 1640.603 1337.927"><path d="m1566.858 1332.927-1497.959-5.479c-35.419-.131-64.034-28.95-63.899-64.378L9.09 146.112l.278-77.209C9.5 33.484 38.313 4.878 73.737 5l1497.967 5.484c35.419.131 64.025 28.945 63.898 64.377l-.288 77.626-4.08 1116.541c-.13 35.42-28.957 64.029-64.376 63.899z" fill="#fff"/><path d="M1567.102 1337.927h-.263L68.88 1332.448c-18.467-.068-35.802-7.324-48.812-20.43C7.057 1298.911-.07 1281.521 0 1263.052L4.091 146.094l.277-77.209C4.509 30.851 35.504 0 73.512 0h.243l1497.968 5.484c38.117.141 69.017 31.271 68.88 69.395l-.288 77.626-4.08 1116.541c-.068 18.466-7.325 35.8-20.434 48.811-13.045 12.949-30.331 20.07-48.699 20.07zM73.511 10c-32.513 0-59.022 26.387-59.143 58.922l-.277 77.208L10 1263.089c-.061 15.798 6.036 30.673 17.165 41.884 11.128 11.21 25.956 17.417 41.752 17.475l1497.959 5.479h.225c15.713 0 30.497-6.091 41.656-17.167 11.212-11.129 17.419-25.956 17.478-41.75l4.08-1116.541.288-77.626c.117-32.609-26.313-59.238-58.917-59.358L73.719 10h-.208z"/><path d="M1637.865 153.907 11.641 147.531l.278-77.209C12.05 34.903 40.863 6.297 76.287 6.42l1497.967 5.484c35.419.131 64.025 28.945 63.898 64.377z"/><g fill="#fff"><circle cx="1564.318" cy="80.029" r="19.864"/><circle cx="1496.747" cy="79.804" r="19.864"/><circle cx="1429.176" cy="79.58" r="19.864"/></g></svg></g><g transform="translate(460.0 58.0) rotate(0.0 661.5 1187.0) scale(0.997803775816193 0.9977443580582566)"><svg width="1325.912" height="2379.367" viewBox="0 0 1325.912 2379.367"><defs xmlns:xlink="http://www.w3.org/1999/xlink"><clipPath id="b"><path d="M1298.339 577.487c20.168-39.374-16.549-15.227-40.177 10.671-1.079-34.674-3.573-69.51-8.462-104.057-14.592-103.114-27.238-37.938-27.238-37.938s-11.673-23.347-21.401 42.802c-8.988 61.12-4.864 102.141-4.864 102.141s-30.156 38.911-59.339 143.971l-393.001 94.359-16.54 134.938c93.389 35.297 223.211 36.823 387.167-95.055 73.06-58.766 122.57-126.461 139.107-196.5 22.293-48.603 36.58-79.384 44.748-95.332z"/></clipPath><clipPath id="c"><use xlink:href="#a"/></clipPath><clipPath id="d"><path d="M363.502 1008.426c-38.577 106.83 45.72 245.139 124.515 334.635s181.909 189.691 188.718 305.451-20.428 285.996-32.102 352.144c22.374-61.285 117.706-61.285 218.874-38.911 101.169 22.374 197.315-3.421 197.315-3.421s-58.208-271.875-91.282-387.635c0 0 282.105-215.956 181.909-353.117s-285.022-227.628-382.3-271.403c-97.277-43.775-367.708-42.802-405.647 62.257z"/></clipPath><clipPath id="e"><path d="m743.857 829.436 25.292 116.733s-65.837 38.532-204.283 16.537c-104.087-16.537-201.364 45.72-201.364 45.72l30.74-300.724c-10.477 15.029-20.594 27.967-29.767 38.074-49.612-11.673-84.281-52.685-106.032-76.849-52.53-58.367-117.706-105.06-163.426-95.332 19.455-14.592 94.554-51.46 152.726-105.06 106.743-98.357 200.343-154.282 240.042-119.534 10.934 9.572 17.782 26.031 19.679 50.37 0 .029.01.068.01.097 70.08 61.637 114.42 22.855 124.93 11.544a12.028 12.028 0 0 1-.371-1.463c-1.985-11.705-2.314-21.781-2.223-31.943 9.426-6.255 64.281-36.729 99.505 55.403 38.862 101.674 110.848 270.937 194.506 351.678z"/></clipPath><clipPath id="f"><path d="M340.431 731.409c2.412 1.265 6.573 3.113 8.966 4.154.029-.019-.49.366-.471.347 20.467-16.936 36.405-29.423 56.182-44.326l.019-.01c138.591-104.379 260.723-157.92 368.176-151.568 61.664 3.648 167.055 77.365 206.938 136.704 39.884 59.339-59.339-6.809-61.285-7.782-1.945 18.483-17.51 27.238-17.51 27.238-2.918 23.347-19.455 28.211-19.455 28.211s-.973 23.347-45.72 19.455c-44.748-3.891-54.475-34.047-54.475-34.047s-24.319-1.946-52.248-17.763c-9.012-5.104-20.253-3.706-27.335 3.852-61.47 65.623-214.4 337.903-421.396 322.28-176.831-13.356-176.286-254.137-138.202-382.913.7-2.393 1.42-4.738 2.15-7.043 4.883-15.428 10.311-29.047 16.002-40.195"/></clipPath><path id="a" d="M545.217 1619.222c-49.057 4.358-105.04 7.218-155.313 4.63-125.624-6.469-36.304-142.181-36.304-142.181 27.714-9.932 59.962-19.747 95.468-32.024z" fill="#000"/></defs><path d="M507.473 184.486s-56.214 68.865-121.597 107.005c-35.02 20.428-94.359 35.02-185.8 40.857C93.62 339.143 32.759 406.279 36.65 493.828c2.679 60.284 29.183 104.087-15.564 184.827-54.212 97.817-1.946 224.711 134.43 263.128 0 0 506.14-598.485 430.753-761.189z" fill="#232323"/><path d="M1298.339 577.487c20.168-39.374-16.549-15.227-40.177 10.671-1.079-34.674-3.573-69.51-8.462-104.057-14.592-103.114-27.238-37.938-27.238-37.938s-11.673-23.347-21.401 42.802c-8.988 61.12-4.864 102.141-4.864 102.141s-30.156 38.911-59.339 143.971l-393.001 94.359-16.54 134.938c93.389 35.297 223.211 36.823 387.167-95.055 73.06-58.766 122.57-126.461 139.107-196.5 22.293-48.603 36.58-79.384 44.748-95.332z" fill="#fff"/><path d="M837.097 987.7c-37.653.001-74.624-6.831-110.84-20.519a3 3 0 0 1-1.917-3.172l16.54-134.938a3 3 0 0 1 2.277-2.552l391.285-93.947c26.736-95.576 53.844-135.691 58.668-142.343-.576-7.184-3.122-46.59 4.983-101.701 3.25-22.099 8.268-47.672 18.31-49.281 1.634-.262 3.104.121 4.366.827 1.965-7.516 5.666-17.229 11.66-17.229.048 0 .095 0 .143.002 4.251.108 7.568 4.501 10.754 14.243 3.218 9.838 6.361 25.514 9.345 46.591 4.239 29.958 6.944 61.843 8.248 97.266 12.177-12.219 34.942-32.048 43.55-26.084 4.505 3.126 3.438 10.525-3.46 23.992-8.145 15.903-22.513 46.863-44.566 94.945-16.355 68.887-64.786 137.298-140.078 197.858-96.046 77.254-189.567 116.038-279.268 116.042zm-106.514-25.308c52.715 19.491 107.647 24.265 163.321 14.193 70.574-12.768 144.155-49.644 218.7-109.604 74.347-59.801 122.09-127.18 138.067-194.853.046-.193.11-.381.193-.562 22.159-48.312 36.594-79.419 44.804-95.448 7.007-13.68 5.348-16.349 5.33-16.374-3.031-1.545-21.888 9.901-40.621 30.435a3 3 0 0 1-5.215-1.929c-1.185-38.068-3.943-71.998-8.434-103.73-7.225-51.053-13.372-55.311-14.303-55.663-1.968.719-5.355 9.327-7.019 17.877a3.002 3.002 0 0 1-5.629.77c-.512-.994-1.74-2.448-2.43-2.332-.716.119-7.164 2.369-13.32 44.229-8.822 59.991-4.888 100.998-4.847 101.405a3.01 3.01 0 0 1-.614 2.138c-10.325 13.372-35.909 60.459-58.819 142.936a2.998 2.998 0 0 1-2.19 2.114L746.58 831.867z" fill="#232323"/><path clip-path="url(#b)" d="M1250.189 690.898a3 3 0 0 1-2.935-3.638c7.532-34.65 7.537-58.952 7.543-87.091.001-7.984.003-16.24.172-25.17a2.998 2.998 0 0 1 3.056-2.942 2.999 2.999 0 0 1 2.942 3.056c-.167 8.874-.169 17.102-.17 25.058-.006 28.484-.011 53.085-7.68 88.365a3 3 0 0 1-2.928 2.362zm-15.568-130.352a3 3 0 0 1-2.999-2.966c-.01-.841-1.135-84.53-15.364-121.527a3 3 0 0 1 5.6-2.154c14.617 38.004 15.725 120.135 15.765 123.613a3 3 0 0 1-2.966 3.034h-.036z" fill="#232323"/><path d="M769.149 946.169s-13.58 7.948-41.382 14.562l16.09-131.295z" fill="#f4ada2"/><path d="M599.887 1396.563s56.421 102.141 78.795 210.119 7.117 146.633-32.102 150.78c-39.219 4.148-122.57-39.883-46.693-360.899z" fill="#232323"/><path d="M641.991 1760.697c-10.129 0-27.709-3.064-43.55-21.052-29.755-33.787-54.163-120.854-1.475-343.772a3.002 3.002 0 0 1 2.513-2.282 3.012 3.012 0 0 1 3.033 1.522c.566 1.025 56.897 103.778 79.106 210.962 14.716 71.018 13.96 114.519-2.378 136.899-7.48 10.246-18.061 15.961-32.346 17.472-1.322.14-2.978.251-4.903.251zm-41.005-355.663c-21.747 93.92-31.297 171.077-28.393 229.436 2.337 46.943 12.549 80.995 30.351 101.21 17 19.305 35.953 19.582 43.32 18.8 12.505-1.322 21.706-6.242 28.13-15.042 15.059-20.629 15.5-63.854 1.35-132.146-18.699-90.245-61.83-177.399-74.758-202.258zm459.837 553.291s-105.956 35.889-203.192 2.145-203.269-10.398-212.997 40.187c-9.728 50.584 85.287 158.53 416.189-42.332z" fill="#232323"/><path d="M749.776 2078.316c-39.622 0-64.432-10.38-79.318-20.731-25.929-18.03-31.703-42.241-28.77-57.494 2.856-14.851 13.611-28.036 31.104-38.131 43.841-25.3 120.252-27.078 185.821-4.323 27.396 9.508 73.326 19.21 136.564 11.456 37.931-4.653 64.419-13.521 64.683-13.609a3 3 0 0 1 2.519 5.406c-101.605 61.676-189.542 99.516-261.368 112.471-19.344 3.487-36.337 4.955-51.235 4.955zm13.935-130.664c-34.074 0-65.462 6.545-87.919 19.505-15.938 9.197-25.694 20.978-28.211 34.066-2.594 13.486 2.738 35.049 26.303 51.434 30.834 21.442 127.454 54.85 366.465-85.596a406.502 406.502 0 0 1-44.292 7.967c-35.569 4.379-88.634 5.896-139.409-11.725-30.157-10.464-62.612-15.651-92.937-15.651z" fill="#232323"/><path d="M1075.525 2039.247 897.39 2072.36c-7.695-21.382-15.36-40.623-22.909-57.792-11.547-26.275-22.792-47.685-33.347-64.495h217.989s.623 2.918 1.702 8.249c2.783 13.793 8.63 43.745 14.7 80.925z" fill="#fff"/><path d="M1094.085 2201.992s-138.007 67.87-167.346-36.936c-9.65-34.495-19.514-65.341-29.349-92.686v-.01l178.134-33.113v.01c7.919 48.531 16.207 109.398 18.561 162.735z" fill="#00796B"/><path d="m909.188 2104.616 171.792-28.92 1.66 9.862-171.792 28.92z" fill="#fff"/><path d="M1006.799 2226.559c-18.241 0-31.436-3.666-40.415-7.68-21.004-9.391-35.314-27.228-42.533-53.016-9.245-33.045-19.098-64.159-29.283-92.479a2.957 2.957 0 0 1-.044-.133c-7.448-20.688-15.114-40.024-22.788-57.478-11.007-25.045-22.157-46.613-33.142-64.105a3.002 3.002 0 0 1 2.541-4.596h217.989a3 3 0 0 1 2.934 2.374s.625 2.929 1.709 8.279c2.919 14.471 8.711 44.237 14.72 81.037l.014.097c7.126 43.687 16.129 107.4 18.583 163a3 3 0 0 1-1.673 2.824c-.78.384-19.396 9.47-44.633 15.87-17.116 4.342-31.693 6.006-43.979 6.006zm-106.541-155.081c10.219 28.422 20.101 59.634 29.37 92.769 6.716 23.989 19.906 40.527 39.205 49.155 45.066 20.145 110.613-7.989 122.165-13.275-2.568-54.87-11.417-117.379-18.434-160.387l-.014-.096c-5.988-36.664-11.758-66.313-14.665-80.729-.506-2.495-.911-4.46-1.198-5.842H846.509c10.217 16.867 20.537 37.118 30.719 60.287 7.744 17.613 15.478 37.122 22.986 57.984l.044.134z" fill="#232323"/><path d="M672.845 1603.765s-21.236 3.628-54.31 7.938c-3.58.467-7.305.944-11.158 1.42a1879.476 1879.476 0 0 1-66.051 7.072c-49.057 4.358-105.04 7.218-155.313 4.63-125.624-6.469-36.304-142.181-36.304-142.181 27.714-9.932 59.962-19.747 95.468-32.024 30.827-10.662 64.096-23.181 98.951-39.261a816.697 816.697 0 0 0 16.849-7.986c-.001 0 92.412 151.753 111.868 200.392z" fill="#fff"/><use xmlns:xlink="http://www.w3.org/1999/xlink" fill="#00796B" xlink:href="#a"/><path clip-path="url(#c)" d="M451.318 1451.002h10v182.101h-10z" fill="#fff" transform="matrix(.8856 -.4644 .4644 .8856 -663.9775 388.3235)"/><path d="M426.653 1628.811c-14.352 0-27.959-.329-40.795-.99-32.802-1.689-54.365-12.286-64.091-31.497-21.692-42.852 23.501-112.39 25.436-115.329a3.003 3.003 0 0 1 1.494-1.175c14.855-5.323 31.062-10.631 48.22-16.25 15.132-4.955 30.778-10.079 47.279-15.784 37.647-13.021 69.002-25.462 98.674-39.15a799.945 799.945 0 0 0 16.788-7.958 3.003 3.003 0 0 1 3.88 1.135c3.778 6.205 92.767 152.522 112.092 200.838a2.997 2.997 0 0 1-2.28 4.071c-.213.036-21.673 3.688-54.427 7.956-3.586.468-7.318.945-11.178 1.423a1880.948 1880.948 0 0 1-66.153 7.083c-42.184 3.746-80.67 5.627-114.939 5.627zm-74.969-143.687c-5.032 7.973-43.492 71.116-24.561 108.497 8.685 17.147 28.55 26.638 59.043 28.208 43.209 2.224 95.322.67 154.894-4.622 21.61-1.92 43.798-4.296 65.944-7.061 3.85-.477 7.568-.952 11.143-1.418 24.748-3.225 43.011-6.094 50.479-7.308-20.33-47.633-97.356-175.273-108.798-194.154a818.097 818.097 0 0 1-14.447 6.817c-29.854 13.773-61.384 26.284-99.225 39.372-16.548 5.722-32.218 10.854-47.372 15.816-16.746 5.485-32.584 10.672-47.1 15.853z" fill="#232323"/><path d="M374.74 1884.752c-19.396-2.904-51.824-23.736-81.046-76.692l-142.121-257.557c92.277-40.125 167.181-55.689 213.139-73.319 9.26 29.744-8.94 42.063-1.84 71.669 8.224 34.292 20.323 36.12 37.945 119.503.285 1.346.649 2.656.97 3.976.089.37.181.727.266 1.089 5.953 25.09 8.868 47.995 9.663 68.688 3.392 89.303-32.903 137.507-36.656 142.258 0 0 .004.008-.004.012-.086.11-.164.195-.215.255l-.101.118z" fill="#fff"/><path d="M374.731 1887.751c-.145 0-.29-.011-.436-.032-21.116-3.161-54.068-25.366-83.228-78.209l-142.121-257.558a3 3 0 0 1 1.431-4.2c59.479-25.863 111.707-41.534 153.673-54.126 23.222-6.968 43.276-12.985 59.588-19.242a2.995 2.995 0 0 1 2.383.102 2.997 2.997 0 0 1 1.556 1.808c5.042 16.193 2.312 27.588-.327 38.607-2.424 10.121-4.714 19.681-1.459 33.253 3.021 12.594 6.625 20.836 10.799 30.378 7.166 16.384 16.084 36.773 27.164 89.204.145.683.397 1.736.732 3.132 2.44 10.163 8.923 37.16 10.229 71.126 3.393 89.306-32.58 138.214-37.201 144.107a6.273 6.273 0 0 1-.372.46l-.094.108a3.042 3.042 0 0 1-2.317 1.082zm-218.935-335.807 140.526 254.667c27.308 49.489 57.411 70.998 77.166 74.88 6.527-8.689 38.408-55.62 35.23-139.269-1.282-33.372-7.664-59.949-10.066-69.955a156.45 156.45 0 0 1-.77-3.292c-10.952-51.829-19.734-71.907-26.79-88.04-4.288-9.804-7.991-18.271-11.136-31.384-3.591-14.97-1.024-25.687 1.458-36.049 2.38-9.937 4.638-19.36 1.305-32.359-15.927 5.922-35.033 11.654-56.944 18.229-41.099 12.333-92.077 27.629-149.979 52.572z" fill="#232323"/><path d="M346.349 1580.847a2.996 2.996 0 0 1-2.423-1.229c-16.312-22.29-24.492-25.85-40.788-32.94-4.377-1.904-9.338-4.063-15.132-6.886-27.479-13.388-32.388-24.68-32.856-25.923a3 3 0 0 1 5.598-2.16c.115.266 4.739 10.437 29.887 22.688 5.678 2.767 10.576 4.898 14.897 6.778 16.743 7.285 25.966 11.299 43.236 34.899a2.999 2.999 0 0 1-.649 4.192 2.978 2.978 0 0 1-1.77.581zm38.527 291.295a2.99 2.99 0 0 1-1.309-.303c-34.25-16.638-60.373-44.213-77.643-81.959-11.227-24.538-18.67-53.479-22.123-86.021-2.093-19.723-8.963-28.339-16.237-37.461-6.015-7.543-12.234-15.343-14.951-29.307-2.142-11.005-.687-19.811.721-28.327 1.84-11.132 3.577-21.646-2.432-37.122-13.242-34.108-41.167-39.985-42.349-40.219-1.623-.32-2.684-1.895-2.367-3.519s1.886-2.685 3.509-2.371c1.312.253 32.314 6.623 46.801 43.937 6.603 17.007 4.647 28.834 2.758 40.272-1.382 8.36-2.687 16.257-.752 26.202 2.437 12.52 7.934 19.414 13.754 26.713 7.49 9.393 15.235 19.105 17.513 40.568 3.384 31.896 10.655 60.211 21.612 84.158 16.675 36.446 41.844 63.045 74.808 79.059a3 3 0 0 1-1.313 5.7z" fill="#232323"/><ellipse cx="212.571" cy="1588.018" fill="#00796B" rx="18.786" ry="32.074" transform="matrix(.8755 -.4831 .4831 .8755 -740.7641 300.3306)"/><path d="M406.606 1689.869a7.48 7.48 0 0 1-5.146-2.044c-14.451-13.633-31.044-22.764-49.315-27.14-13.725-3.288-23.312-2.511-23.408-2.501-4.116.348-7.758-2.683-8.129-6.798s2.643-7.754 6.757-8.14c1.807-.169 44.759-3.717 84.389 33.666a7.502 7.502 0 0 1-5.148 12.957zm4.829 41.661a7.48 7.48 0 0 1-5.577-2.483c-30.355-33.731-71.92-32.923-72.324-32.903-4.142.099-7.594-3.127-7.725-7.259s3.097-7.591 7.229-7.732c1.966-.082 48.805-1.215 83.97 37.861a7.5 7.5 0 0 1-5.573 12.516zm.779 39.345a7.48 7.48 0 0 1-5.638-2.551c-26.711-30.412-61.65-30.759-62.871-30.759l-.116.001a7.5 7.5 0 0 1-.082-15c1.693.003 42.786-.065 74.339 35.859a7.5 7.5 0 0 1-.686 10.584 7.471 7.471 0 0 1-4.946 1.866z" fill="#00796B"/><path d="M363.502 1008.426c-38.577 106.83 45.72 245.139 124.515 334.635s181.909 189.691 188.718 305.451-20.428 285.996-32.102 352.144c22.374-61.285 117.706-61.285 218.874-38.911 101.169 22.374 197.315-3.421 197.315-3.421s-58.208-271.875-91.282-387.635c0 0 282.105-215.956 181.909-353.117s-285.022-227.628-382.3-271.403c-97.277-43.775-367.708-42.802-405.647 62.257z" fill="#fff"/><path d="M644.636 2003.658a3 3 0 0 1-2.955-3.523c11.892-67.388 38.82-236.529 32.061-351.447-5.947-101.105-87.45-191.69-159.358-271.612-9.948-11.058-19.345-21.501-28.617-32.032-45.818-52.041-83.735-109.427-106.765-161.588-29.893-67.703-36.057-126.934-18.32-176.048 9.459-26.195 33.101-47.461 70.267-63.205 45.31-19.195 108.897-29.223 179.051-28.249 64.176.895 124.131 11.167 160.381 27.479 47.078 21.186 118.04 54.693 190.438 100.889 84.25 53.759 149.203 111.453 193.054 171.481 23.445 32.096 28.253 71.024 14.287 115.704-11.048 35.344-33.848 74.356-67.767 115.955-52.717 64.653-116.512 115.79-127.413 124.351 32.819 115.62 90.197 383.179 90.776 385.884a3 3 0 0 1-2.156 3.525c-.969.259-98.022 25.729-198.739 3.452-55.689-12.315-102.107-16.308-137.97-11.868-41.416 5.129-67.471 21.574-77.438 48.879a3.002 3.002 0 0 1-2.817 1.973zm-281.134-995.232 2.821 1.019c-17.193 47.614-11.081 105.344 18.166 171.588 22.789 51.614 60.355 108.453 105.78 160.046 9.25 10.507 18.637 20.938 28.573 31.983 72.567 80.654 154.817 172.07 160.889 275.274 6.24 106.107-16.024 257.866-28.941 334.304 14.104-19.482 38.687-31.494 73.364-35.788 36.539-4.524 83.643-.5 140.002 11.964 89.854 19.874 176.701 1.217 193.123-2.703-6.313-29.335-59.764-276.589-90.623-384.599a2.997 2.997 0 0 1 1.062-3.206c.703-.539 70.974-54.646 128.084-124.709 33.414-40.992 55.837-79.32 66.644-113.921 13.353-42.747 8.838-79.869-13.418-110.336-43.408-59.423-107.817-116.606-191.435-169.962-72.069-45.986-142.766-79.367-189.674-100.477-35.539-15.992-94.604-26.067-158.001-26.951-69.352-.967-132.068 8.897-176.63 27.774-35.564 15.066-58.095 35.158-66.964 59.718z" fill="#232323"/><path clip-path="url(#d)" d="M971.722 1581.236a3.002 3.002 0 0 1-2.889-2.199c-18.51-66.745-55.332-169.312-93.811-261.3-35.695-85.335-91.107-205.964-152.38-296.027a3 3 0 1 1 4.961-3.375c61.554 90.478 117.152 211.497 152.954 297.087 38.567 92.2 75.486 195.046 94.057 262.012a2.998 2.998 0 0 1-2.892 3.802zm-294.183 99.972a3 3 0 0 1-2.996-2.886c-1.593-41.829-5.324-139.784-20.331-227.977a3 3 0 0 1 5.914-1.006c15.073 88.578 18.815 186.808 20.413 228.754a3.002 3.002 0 0 1-3 3.115z" fill="#232323"/><path clip-path="url(#d)" d="M861.8 1279.675a3 3 0 0 1-.904-5.862c.775-.245 78.181-24.429 139.417-16.653a3.001 3.001 0 0 1 2.599 3.354 3.01 3.01 0 0 1-3.354 2.599c-59.91-7.613-136.088 16.18-136.851 16.421a2.992 2.992 0 0 1-.907.141z" fill="#232323"/><path d="m743.857 829.436 25.292 116.733s-13.58 7.948-41.382 14.562c-33.405 7.957-87.336 13.979-162.901 1.975-104.087-16.537-201.364 45.72-201.364 45.72l31.129-304.479 112.842-304.479c24.319 16.537 73.931 61.285 127.433 8.755-5.403-15.82-3.609-31.061-3.609-31.061s59.145-45.828 98.017 55.847c38.716 101.305 113.221 271.628 196.51 352.738z" fill="#00796B"/><path d="M787.905 201.189c-1.975 20.584-5.331 86.149-37.734 99.145-13.201 5.302-50.448-6.401-67.997-14.008-10.283 0-25.292 7.586-35.487 24.709-10.496 17.636-17.666 47.413-11.78 97.19 0 0-50.622 63.957-131.363-7.056 0 0 .038-33.801-20.39-48.392 0 0 71.985-54.475 89.495-142.025 1.946-2.918 22.539-44.242 21.703-44.261-24.384-.535-35.678-1.958-38.045-2.14L644.002 3.638c57.078-5.194 99.575 21.722 120.293 66.917 20.165 43.96 15.212 82.44 22.724 98.279 2.296 4.845 6.576 8.22 10.876 11.216 9.319 6.226-1.751 17.89-9.99 21.139z" fill="#fff"/><path d="M635.39 415.154a3.003 3.003 0 0 1-2.972-2.616c-5.878-45.46-1.945-80.127 11.69-103.039 10.767-18.081 26.876-26.174 38.065-26.174.41 0 .816.084 1.193.248 19.75 8.562 54.505 18.467 65.686 13.977 28.415-11.396 33.321-67.633 35.416-91.647.163-1.868.31-3.546.449-5a2.998 2.998 0 0 1 1.886-2.504c4.99-1.968 11.149-7.602 11.612-11.916.114-1.076-.029-2.496-2.188-3.937-4.7-3.275-9.358-7.021-11.92-12.426-3.07-6.474-4.142-15.927-5.499-27.895-2.087-18.405-4.944-43.611-17.241-70.418C740.565 25.99 698.465 2.246 645.863 6.489l-84.744 155.304c5.595.51 16.218 1.323 33.298 1.697a3.04 3.04 0 0 1 2.614 1.627c.884 1.698.997 1.916-9.952 24.058-3.821 7.726-9.768 19.545-11.592 22.682-5.135 25.308-18.303 63.839-51.835 104.643-15.569 18.946-29.702 31.34-35.689 36.273 18.395 16.21 18.582 47.027 18.58 48.398a3 3 0 0 1-3 2.997h-.003a3 3 0 0 1-2.997-3.001c0-.323-.227-32.444-19.135-45.949a3.003 3.003 0 0 1-.067-4.833c.711-.539 71.291-54.855 88.365-140.222.076-.384.228-.75.445-1.076 1.402-2.104 15.186-29.574 19.827-39.705-18.299-.509-28.421-1.507-32.407-1.9-.679-.067-1.174-.116-1.497-.141a3 3 0 0 1-2.403-4.428L641.368 2.201A3.002 3.002 0 0 1 643.73.65c56.008-5.091 100.954 19.926 123.292 68.655 12.696 27.678 15.616 53.436 17.749 72.243 1.294 11.414 2.316 20.429 4.959 26 2.06 4.347 6.18 7.462 9.88 10.041 3.469 2.316 5.18 5.713 4.771 9.532-.684 6.38-7.306 12.968-13.652 16.093-.09.993-.184 2.065-.283 3.21-2.19 25.113-7.321 83.925-39.158 96.694-14.7 5.901-52.872-6.578-69.711-13.783-9.469.293-22.951 7.511-32.312 23.234-12.932 21.729-16.598 55.104-10.896 99.2a3 3 0 0 1-2.979 3.385z" fill="#232323"/><path d="M781.508 140.064c-82.853 30.985-159.356 26.684-159.356 26.684l109.793-30.603 44.375-12.368 3.138-.872c.007.044.011.098.018.142.805 5.657 1.391 11.339 2.032 17.017zm-98.124 143.581c-.263 0-.535.019-.817.049-6.109.136-22.588 4.368-34.67 24.66-21.586-22.228-24.319-49.748-16.644-53.59 5.837-2.918 14.689 4.699 20.467 8.949 11.634 8.56 20.389 14.397 31.664 19.932z" fill="#232323"/><path d="M723.244 142.683c-14.008 5.156-21.251 17.697-17.909 24.099s17.191 6.732 30.011-.915c13.179-7.861 21.193-18.461 17.909-24.099-3.403-5.845-16.112-4.201-30.011.915z" fill="#232323"/><path d="M759.935 241.697c-6.159 2.273-14.47-.815-18.648-5.762-4.714-5.582-5.497-13.032-2.64-18.587" fill="#fff"/><path d="M760.706 243.786c-1.812.961-3.845 1.393-5.834 1.501a19.029 19.029 0 0 1-5.861-.673c-3.776-1.031-7.282-3.014-10.09-6.087a21.29 21.29 0 0 1-3.274-5.032c-.803-1.836-1.4-3.775-1.611-5.771-.484-3.961.356-8.15 2.63-11.394a2.246 2.246 0 0 1 3.996 1.911l-.037.124a16.344 16.344 0 0 0-.217 8.305c.34 1.333.78 2.639 1.44 3.842a15.867 15.867 0 0 0 2.303 3.375c1.711 1.955 4.198 3.556 6.821 4.618 2.649 1.046 5.481 1.531 8.192 1.103l.14-.022a2.243 2.243 0 0 1 1.402 4.2zm-26.508-67.846c5.602-3.036 19.208-10.009 30.539-20.757a3.94 3.94 0 0 1 5.601.171c3.862 4.127 8.919 11.895.259 18.226-10.64 7.779-30.942 9.731-36.635 5.785-1.224-.848-1.073-2.715.236-3.425z" fill="#232323"/><path d="M569.223 185.027c-.949.217-2.078.417-3.377.602-33.207 4.877-177.48 1.877-183.721-39.792-4.985-33.281 92.681-49.565 138.159-55.321 1.771-.228 3.451-.429 5.05-.623 9.938-1.192 16.49-1.792 17.486-1.887.08-.007.13-.005.13-.005z" fill="#00796B"/><path d="M569.223 185.027c-.949.217-2.078.417-3.377.602-13.546-6.709-51.667-35.13-45.562-95.114 1.771-.228 3.451-.429 5.05-.623 9.938-1.192 16.49-1.792 17.486-1.887.08-.007.13-.005.13-.005s1.509 65.632 26.273 97.027z" fill="#232323"/><path d="M782.2 121.535a85.52 85.52 0 0 1-2.724 1.508c-11.401 6.119-27.919 12.987-46.45 19.427h-.01c-18.531 6.44-39.047 12.451-58.464 16.887-19.718 4.494-38.279 7.374-52.403 7.393h-1.955c-37.228 0-47.851-1.099-65.059-2.695l-2.51 1.479c-18.93-32.17-20.195-70.964-3.405-103.785C567.061 26.904 601.507 4.657 643.735.727c29.135-2.617 56.1 3.054 77.978 16.41 20.788 12.695 37.111 32.345 47.306 56.927.263.633.516 1.265.768 1.897 5.604 13.774 10.205 30.719 12.413 45.574z" fill="#00796B"/><path d="M622.152 166.748s-22.597-24.934-51.272-17.152c-27.049 7.341-26.387 48.104 18.681 74.204 6.923 4.009 19.504 8.893 29.601 10.418z" fill="#fff"/><path d="M619.166 237.218c-.149 0-.3-.011-.452-.034-10.681-1.612-23.507-6.647-30.656-10.788-13.355-7.734-23.923-17.394-30.562-27.935-6.036-9.585-8.713-19.822-7.536-28.824 1.505-11.513 8.844-19.873 20.134-22.937 30.105-8.17 53.309 16.958 54.281 18.032a2.999 2.999 0 0 1-.208 4.237 2.998 2.998 0 0 1-4.235-.206c-.214-.235-21.754-23.465-48.266-16.273-8.838 2.399-14.581 8.932-15.757 17.924-1.705 13.05 6.479 34.182 35.155 50.789 6.497 3.762 18.71 8.562 28.546 10.047a3 3 0 0 1-.444 5.968z" fill="#232323"/><path d="M577.979 175.434s26.576-1.097 40.261 29.374" fill="#fff"/><path d="M618.242 207.809a2.998 2.998 0 0 1-2.738-1.772c-12.635-28.131-36.403-27.641-37.41-27.605-1.68.055-3.045-1.232-3.107-2.884s1.218-3.043 2.869-3.111c1.18-.04 28.771-.811 43.121 31.143a3 3 0 0 1-2.735 4.229zM782.2 121.535a85.52 85.52 0 0 1-2.724 1.508c-11.401 6.119-27.919 12.987-46.45 19.427h-.01c-5.331-10.379-7.889-29.864-1.547-43.104 6.362-13.298 18.998-22.442 37.549-25.302.263.633.516 1.265.768 1.897 5.605 13.774 10.206 30.719 12.414 45.574z" fill="#232323"/><path d="M1322.912 2342.46c-11.913 15.579-45.82 33.907-106.303 33.907H922.443c8.611-50.509 20-134.599 2.889-217.398 30.516 6.263 32.509 28.149 61.861 36.236 33.998 9.366 77.334-4.982 158.854 19.875 1.316.401 2.639.715 3.95 1.072.366.101.724.193 1.081.293 24.844 6.91 46.306 15.423 64.808 24.725 79.828 40.175 104.498 95.242 106.844 100.823 0 0 .009 0 .009.009.055.128.092.238.119.311.036.101.054.147.054.147z" fill="#fff"/><path d="M1216.609 2379.367H922.442a3.002 3.002 0 0 1-2.957-3.503c9.238-54.187 19.591-135.562 2.908-216.286a2.997 2.997 0 0 1 3.541-3.546c16.614 3.409 25.271 11.304 33.645 18.938 7.69 7.013 14.954 13.637 28.41 17.343 12.54 3.455 26.252 3.585 43.611 3.75 28.675.271 64.361.609 115.32 16.148.668.203 1.714.49 3.098.871 10.077 2.773 36.847 10.141 67.214 25.407 79.818 40.17 105.271 95.301 108.2 102.194.04.082.077.166.109.251.07.179.173.452.2.529a2.999 2.999 0 0 1-.447 2.818c-12.969 16.962-48.331 35.086-108.685 35.086zm-290.617-6h290.617c56.523 0 89.898-15.965 102.842-31.386-4.455-9.914-30.151-60.506-104.915-98.132-29.836-14.999-56.188-22.252-66.109-24.982-1.455-.4-2.554-.703-3.256-.918-50.132-15.285-85.338-15.619-113.627-15.888-17.093-.161-31.853-.302-45.148-3.964-14.842-4.089-22.984-11.514-30.858-18.694-7.282-6.64-14.202-12.949-26.34-16.405 15.229 78.451 5.774 156.791-3.206 210.369z" fill="#232323"/><path d="M935.753 2268.115c-.944 0-1.499-.044-1.621-.055a3.001 3.001 0 0 1-2.72-3.257c.149-1.646 1.62-2.841 3.247-2.721.27.02 17.544 1.161 40.866-15.249 5.166-3.636 9.398-6.895 13.133-9.77 14.468-11.14 22.438-17.275 51.444-20.994a3 3 0 0 1 .763 5.951c-27.397 3.513-34.466 8.954-48.547 19.797-3.782 2.912-8.069 6.213-13.341 9.922-21.411 15.069-38.087 16.376-43.224 16.376zm285.929 89.337c-4.956 0-9.982-.191-15.081-.575-26.908-2.025-55.845-9.491-86.004-22.19-18.281-7.697-29.146-5.844-40.644-3.882-9.511 1.621-19.343 3.299-32.884-1.068-10.67-3.442-17.676-8.971-24.452-14.317-8.857-6.988-17.224-13.59-33.677-15.807-36.266-4.88-54.897 16.727-55.674 17.649a3.002 3.002 0 0 1-4.224.372 2.997 2.997 0 0 1-.382-4.218c.855-1.027 21.412-25.092 61.08-19.749 18.08 2.435 27.491 9.86 36.593 17.042 6.652 5.249 12.936 10.206 22.577 13.316 12.139 3.915 20.831 2.434 30.033.864 11.843-2.02 24.088-4.108 43.98 4.268 29.561 12.446 57.865 19.76 84.126 21.736 39.977 3.008 75.416-6.178 105.361-27.303a3 3 0 0 1 3.459 4.903c-27.28 19.246-58.907 28.959-94.187 28.959z" fill="#232323"/><ellipse cx="984.758" cy="2341.085" fill="#00796B" rx="32.074" ry="18.786"/><path d="M1095.443 2277.744a7.438 7.438 0 0 1-3.008-.635c-3.782-1.663-5.512-6.061-3.861-9.849.726-1.665 18.369-40.982 70.248-57.62a7.499 7.499 0 0 1 9.432 4.852 7.5 7.5 0 0 1-4.852 9.432c-45.153 14.481-60.933 49.006-61.087 49.353a7.522 7.522 0 0 1-6.872 4.467zm35.74 13.76a7.5 7.5 0 0 1-6.681-10.898c.896-1.763 22.52-43.319 73.719-55.228a7.5 7.5 0 0 1 3.399 14.609c-44.464 10.343-63.556 47.041-63.744 47.411a7.498 7.498 0 0 1-6.693 4.106zm41.237 10.983a7.45 7.45 0 0 1-3.557-.903c-3.635-1.968-4.998-6.494-3.042-10.135.819-1.525 20.616-37.494 67.312-47.763a7.497 7.497 0 0 1 8.936 5.715 7.5 7.5 0 0 1-5.715 8.936c-39.749 8.741-57.16 39.918-57.331 40.232a7.517 7.517 0 0 1-6.603 3.918zM364.475 745.777c57.394-63.23 151.506-236.645 142.998-346.308-8.755-112.842-123.542-56.421-259.731 69.067-58.175 53.605-133.27 90.468-152.726 105.06 45.72-9.728 110.896 36.965 163.426 95.332 21.75 24.166 56.422 65.176 106.033 76.849z" fill="#00796B"/><path d="M348.926 735.91c-138.799-48.335-233.544-80.03-254.692-114.136-18.716-30.175-7.043-73.639 67.841-36.479 41.256 20.487 101.714 65.449 186.851 150.615z" fill="#232323"/><path d="M348.926 738.91a2.99 2.99 0 0 1-.985-.167l-18.435-6.414c-130.71-45.463-217.062-75.497-237.821-108.974-10.434-16.823-11.047-35.909-1.491-46.415 16.723-18.382 53.05-4.339 73.216 5.667 48.107 23.89 111.237 74.755 187.64 151.182a3.002 3.002 0 0 1-2.124 5.121zM113.93 574.021c-8.489 0-15.065 2.304-19.298 6.957-7.762 8.532-6.877 24.657 2.152 39.215 19.638 31.67 109.844 63.045 234.693 106.469l5.98 2.081C265.715 657.937 206.3 610.606 160.742 587.981c-18.666-9.262-34.689-13.96-46.812-13.96z" fill="#00796B"/><g clip-path="url(#e)"><path d="M637.558 405.623c12.41 82.377 115.077 426.008 116.106 429.44l-5.592 1.676c-1.012-3.38-100.551-336.085-115.671-425.724" fill="#fff"/></g><path clip-path="url(#e)" d="M369.883 750.865a3.002 3.002 0 0 1-2.306-4.917c60.771-73.15 94.825-147.801 112.69-197.543 21.893-60.953 31.702-119.871 26.241-157.605a3 3 0 0 1 2.539-3.399 3.005 3.005 0 0 1 3.398 2.54c5.68 39.237-3.991 97.734-26.532 160.492-18.028 50.195-52.393 125.526-113.722 199.349a2.99 2.99 0 0 1-2.308 1.083z" fill="#fff"/><path d="M348.926 735.91c114.766-94.965 275.834-204.685 424.377-195.904 61.664 3.648 167.055 77.365 206.938 136.704 39.884 59.339-59.339-6.809-61.285-7.782-1.945 18.483-17.51 27.238-17.51 27.238-2.918 23.347-19.455 28.211-19.455 28.211s-.973 23.347-45.72 19.455c-44.748-3.891-54.475-34.047-54.475-34.047s-24.319-1.946-52.248-17.763c-9.012-5.104-20.253-3.706-27.335 3.852-61.47 65.623-214.4 337.903-421.396 322.28-201.131-15.192-174.78-326.483-118.741-432.859 104.971 24.529 173.203 98.551 186.85 150.615z" fill="#fff"/><g fill="#232323"><path d="M297.755 1021.792c-5.736 0-11.457-.216-17.164-.646-56.911-4.298-99.871-31.976-127.688-82.263-25.879-46.782-37.687-113.778-33.248-188.646 3.743-63.145 18.981-126.883 39.768-166.34a2.996 2.996 0 0 1 3.337-1.522c61.227 14.307 103.93 43.599 128.972 65.651 29.174 25.692 50.373 55.555 58.816 82.658 70.805-58.291 135.127-102.243 196.514-134.289 83.084-43.373 159.27-63.348 226.42-59.383 29.21 1.729 70.447 19.214 113.136 47.975 40.727 27.438 76.657 61.103 96.115 90.051 9.713 14.452 12.18 22.809 7.997 27.097-4.442 4.554-16.383 5.417-69.562-28.267-3.208 13.855-13.293 21.667-16.939 24.097-2.952 19.472-14.903 26.545-19.552 28.591-.591 2.62-2.287 7.315-7.137 11.579-8.445 7.426-22.423 10.348-41.528 8.687-40.225-3.498-53.348-27.289-56.348-34.249-6.343-.793-27.55-4.322-51.594-17.938-7.914-4.482-17.649-3.13-23.667 3.292-11.622 12.408-26.965 32.832-44.729 56.481-38.353 51.056-90.878 120.979-154.687 176.361-34.926 30.312-70.016 53.315-104.297 68.367-34.301 15.06-68.848 22.655-102.935 22.656zM163.661 588.755c-19.867 38.892-34.386 100.582-38.018 161.836-4.372 73.749 7.174 139.588 32.509 185.388 26.777 48.406 68.123 75.048 122.89 79.185 38.637 2.915 78.072-4.326 117.235-21.521 33.728-14.81 68.307-37.488 102.775-67.405 63.328-54.965 115.632-124.593 153.822-175.434 17.87-23.789 33.304-44.334 45.148-56.979 7.919-8.453 20.668-10.266 31.003-4.411 26.961 15.269 50.773 17.363 51.012 17.383a3.004 3.004 0 0 1 2.613 2.069c.378 1.146 9.823 28.321 51.879 31.979 21.514 1.866 31.932-2.814 36.882-7.072 5.205-4.479 5.57-9.346 5.583-9.551.08-1.259.939-2.366 2.149-2.722.583-.18 14.706-4.75 17.326-25.705a2.999 2.999 0 0 1 1.506-2.242c.136-.078 14.245-8.292 15.997-24.938a3.002 3.002 0 0 1 4.325-2.369c.278.14.578.328 2.541 1.577 56.711 36.091 63.34 30.383 63.594 30.123.026-.027 2.514-2.903-8.683-19.561-19.047-28.34-54.369-61.395-94.487-88.423-41.824-28.178-81.968-45.294-110.137-46.96-66.059-3.914-141.183 15.849-223.29 58.711-62.03 32.382-127.123 77.034-198.998 136.509a3 3 0 0 1-4.814-1.551c-7.111-27.131-28.347-57.8-58.26-84.143-24.214-21.325-65.301-49.564-124.102-63.773z"/><path clip-path="url(#f)" d="M838.7 724.945c-.469 0-.944-.11-1.389-.344-20.135-10.546-53.426-12.201-65.517-11.338-1.674.136-3.089-1.126-3.206-2.778a3 3 0 0 1 2.778-3.206c13.159-.936 47.255.76 68.728 12.008a3 3 0 0 1-1.394 5.658zm42.808 5.836a3.001 3.001 0 0 1-2.996-3.206c1.91-27.693-20.999-49.826-41.196-60.364a3.001 3.001 0 0 1 2.776-5.32c21.804 11.376 46.516 35.513 44.407 66.097a3.002 3.002 0 0 1-2.991 2.793zm19.455-28.211-.109-.002a3 3 0 0 1-2.891-3.105c.416-11.646-3.649-23.499-12.084-35.228-6.654-9.255-16.064-18.281-26.496-25.419a3 3 0 1 1 3.389-4.951c10.991 7.52 20.928 17.062 27.979 26.867 9.229 12.834 13.674 25.937 13.209 38.945a3.001 3.001 0 0 1-2.997 2.893zm17.511-25.292a3.001 3.001 0 0 1-2.992-3.26c1.819-20.932-18.134-46.485-38.477-59.098a3 3 0 0 1 3.162-5.1c21.581 13.381 43.388 40.61 41.291 64.717a2.998 2.998 0 0 1-2.984 2.741z"/></g><path d="m355.572 730.438-10.953 8.881c-39.154-16.304-67.452-49.592-86.178-70.39-45.185-50.215-99.748-91.781-143.212-96.217 23.405-16.985 82.044-34.144 140.021 11.352 71.908 56.431 100.322 146.374 100.322 146.374z" fill="#00796B"/><path d="M271.575 812.494a2.999 2.999 0 0 1-2.141-5.101c.54-.551 54.395-55.313 86.232-80.909a3 3 0 0 1 3.76 4.676c-31.563 25.375-85.173 79.89-85.711 80.437a2.994 2.994 0 0 1-2.14.897z" fill="#232323"/></svg></g><g transform="translate(1177.0 361.0) rotate(0.0 240.5 266.0) scale(1.000401408465351 1.0012628710271791)"><svg width="480.807" height="531.329" viewBox="0 0 480.807 531.329"><clipPath id="g"><path d="M477.684 1.312a7.293 7.293 0 0 0-7.548-.484l-136.1 71.01a7.297 7.297 0 0 0-3.854 5.513L281 449.352a7.295 7.295 0 1 0 14.466 1.912l.363-2.743 117.606-27.672c.677 2.874 3.064 5.168 6.165 5.566 3.993.517 7.653-2.308 8.167-6.305l52.98-411.883a7.295 7.295 0 0 0-3.063-6.915z"/></clipPath><path d="m288.233 450.308 49.129-371.6.053-.404.754-.394L472.09 12.073l-51.561 407.106z" fill="#fff"/><path d="M288.243 457.809a7.5 7.5 0 0 1-7.445-8.483l49.186-372.027a7.5 7.5 0 0 1 3.962-5.643l.754-.394 133.452-69.25a7.501 7.501 0 0 1 10.896 7.583l-51.075 410.511c-.512 4.111-4.264 7.032-8.368 6.517a7.5 7.5 0 0 1-6.517-8.368l49.314-396.36-118.063 61.263-48.67 368.133a7.503 7.503 0 0 1-7.426 6.518z" fill="#232323"/><path clip-path="url(#g)" d="M416.168 406.044c5.491 0 10.471 3.746 11.812 9.319 1.57 6.529-2.45 13.095-8.979 14.666l-398.995 95.96c-.955.23-1.912.34-2.853.34-5.491 0-10.472-3.745-11.813-9.319-1.57-6.529 2.45-13.095 8.979-14.666l398.995-95.96c.955-.23 1.913-.34 2.854-.34m.001-5c-1.351 0-2.705.161-4.025.479l-398.995 95.96a17.049 17.049 0 0 0-10.622 7.724A17.048 17.048 0 0 0 .478 518.18a17.103 17.103 0 0 0 16.674 13.15c1.349 0 2.702-.161 4.023-.479l398.995-95.96a17.05 17.05 0 0 0 10.623-7.724 17.048 17.048 0 0 0 2.049-12.973 17.104 17.104 0 0 0-16.673-13.15z" fill="#fff"/><path d="M17.152 526.329c-5.491 0-10.472-3.745-11.813-9.319-1.57-6.529 2.45-13.095 8.979-14.666l398.995-95.96c6.53-1.571 13.096 2.45 14.666 8.979s-2.45 13.095-8.979 14.666l-398.995 95.96c-.955.23-1.912.34-2.853.34z" fill="#232323"/><g fill="#d9c6f4"><circle cx="401.565" cy="422.097" r="4.377"/><path d="M352.436 437.285a4 4 0 0 1-.906-7.896l29.184-6.81a4 4 0 1 1 1.819 7.791l-29.184 6.81a4.024 4.024 0 0 1-.913.105z"/></g></svg></g></svg>